/* XPM */
static char *AfterStep[] = {
/* columns rows colors chars-per-pixel */
"32 32 177 2",
"   c #1C1D1D",
".  c #282A1F",
"X  c #201E2B",
"o  c #2D1F2A",
"O  c #1B2827",
"+  c #222223",
"@  c #242A24",
"#  c #2E2B26",
"$  c #242429",
"%  c #29262B",
"&  c #252A2C",
"*  c #2B2C2B",
"=  c #312E2B",
"-  c #3C2E2F",
";  c #2E312D",
":  c #31312E",
">  c #38372D",
",  c #3A3B2A",
"<  c #252533",
"1  c #2D2E31",
"2  c #302D30",
"3  c #2F3030",
"4  c #343534",
"5  c #383437",
"6  c #343B34",
"7  c #3B3D31",
"8  c #36353A",
"9  c #393539",
"0  c #3C3C3C",
"q  c #442F2F",
"w  c #4A302F",
"e  c #433334",
"r  c #4D3235",
"t  c #403F3F",
"y  c #533631",
"u  c #5B3534",
"i  c #6E3739",
"p  c #723737",
"a  c #71393C",
"s  c #7E3C3A",
"d  c #31422E",
"f  c #2F4034",
"g  c #2F4A30",
"h  c #3F403F",
"j  c #374D39",
"k  c #3B483C",
"l  c #345536",
"z  c #335836",
"x  c #356038",
"c  c #39643B",
"v  c #326938",
"b  c #3A683C",
"n  c #44412E",
"m  c #5D5C2E",
"M  c #464533",
"N  c #484D32",
"B  c #40413F",
"V  c #555332",
"C  c #5E5E35",
"Z  c #5A5738",
"A  c #797836",
"S  c #777838",
"D  c #3B3645",
"F  c #37395B",
"G  c #413E42",
"H  c #3B4350",
"J  c #3E4472",
"K  c #424343",
"L  c #464845",
"P  c #4C4D4B",
"I  c #504F4E",
"U  c #42455F",
"Y  c #4F415B",
"T  c #545454",
"R  c #585957",
"E  c #5F5F5F",
"W  c #6D4E4F",
"Q  c #79474A",
"!  c #78774A",
"~  c #60635F",
"^  c #41456A",
"/  c #564366",
"(  c #5A4769",
")  c #54536A",
"_  c #4D5275",
"`  c #614B72",
"'  c #6C6D6B",
"]  c #727372",
"[  c #787675",
"{  c #787678",
"}  c #7D7C7D",
"|  c #8E3C3C",
" . c #8B403F",
".. c #99403E",
"X. c #B14646",
"o. c #BD4344",
"O. c #C44243",
"+. c #C2484A",
"@. c #CB4B49",
"#. c #D44C4A",
"$. c #E64F4F",
"%. c #EC4F4D",
"&. c #EF504F",
"*. c #EB5153",
"=. c #F45354",
"-. c #F85356",
";. c #FD5558",
":. c #3D8343",
">. c #3C8847",
",. c #42964B",
"<. c #429C4A",
"1. c #45A24B",
"2. c #43AC4F",
"3. c #48B450",
"4. c #4CC254",
"5. c #4BCA56",
"6. c #4DD057",
"7. c #4ED559",
"8. c #4DE35C",
"9. c #4FE85B",
"0. c #4EF161",
"q. c #908C3D",
"w. c #96953C",
"e. c #A3A53C",
"r. c #ADAE43",
"t. c #AFAF48",
"y. c #B1AF44",
"u. c #B5B444",
"i. c #B5B846",
"p. c #BAB941",
"a. c #BEC042",
"s. c #C9CA44",
"d. c #CBCF4C",
"f. c #D4D347",
"g. c #D8DD47",
"h. c #EBED4C",
"j. c #F5F64B",
"k. c #F6FB4B",
"l. c #FDFD4D",
"z. c #F8F750",
"x. c #3F46AD",
"c. c #45488D",
"v. c #424691",
"b. c #7B5892",
"n. c #6A7389",
"m. c #424BA4",
"M. c #525BAA",
"N. c #797EAD",
"B. c #7277B5",
"V. c #4E56CE",
"C. c #6069C2",
"Z. c #525EEF",
"A. c #5861EE",
"S. c #5664F6",
"D. c #5663FC",
"F. c #5965F9",
"G. c #686FE8",
"H. c #636CFD",
"J. c #6C78FC",
"K. c #707CF0",
"L. c #87609F",
"P. c #8761A1",
"I. c #8C64A7",
"U. c #8B62A8",
"Y. c #9567B0",
"T. c #9269B6",
"R. c #986BB6",
"E. c #AE79D1",
"W. c #B67AD8",
"Q. c #BE7EE2",
"!. c #C17FE5",
"~. c #7F88FF",
"^. c #868584",
"/. c #939392",
"(. c #BF81E3",
"). c #C080E7",
"_. c None",
/* pixels */
"_._._._._._._._._._._._._._._._._._._._._._._._._._._._._._._._.",
"_._._._._._._._._._._._._._._._._._.q Q _._._._._._._._._._._._.",
"_._._._._._._._._._._._._._._._.W | | u 4 O _._._._._._._._._._.",
"_._._._._._._._._._._._._.8 P u o.O.p O w a _._._._._._._._._._.",
"_._._._._._._._._._._.K * & ; r @.#.#.+. .> 3 O _._._._._._._._.",
"_._._._._._._._._.+ 0 * % ; * % X.=.$.&.| < ; 3 _._._._._._._._.",
"_._._._._._._.K > V 7 & % * * e s u *.=.=...; * 4 X _._._._._._.",
"_._._._.G G * A d.j.f.i.S > $ < % & a $.-.&.e 1 # # _._._._._._.",
"_._.} 4 * * * p.j.w.i.h.l.l.g.w.m e & y i & @ * 4 L.P.+ _._._._.",
"_.K * * * * % p.l.w.O M e.l.l.l.k.u.3 * & * Y I.R.Y.D ; _._._._.",
"_.t * * * = $ u.j.s.C e.r.Z N q.M O & # 1 * ` W.W.P.= # 1   _._.",
"_.H 0 ; * * O t.j.j.q.V % $ 1 % $ ; >.3.>.6 # ( ).).b.* * 1 _._.",
"_.K 0 0 : = $ r.l.l.  * 1 * # : ,.5.1.3.8.9.l + ( E.Q.U.4 % 4   ",
"_.K 0 0 0 2 & r.p.! x.F @ # % :.8.v $ :.7.:.c g * / (.T.9 % # * ",
"_.B 0 0 0 h * ; < m.D.Z.V.v.# :.8.5.5.b o b 0.1.% & # @ * ; 4 4 ",
"_.K 0 0 0 0 0 5 4 c.F.S.A.J = 6 4.8.5.b d 1.6.l 2 * * 4 4 4 4 4 ",
"_.K 0 0 0 0 0 0 , ^ H M.H.H.^ 8 6 ,.5.7.4.,.* % ; 4 4 4 4 4 4 4 ",
"_.K 0 0 0 0 0 0 t M P I C.J.G._ 0 0 k j 5 = 3 4 4 4 8 4 4 4 9 4 ",
"_.K 0 0 0 0 0 0 0 t E ' ' B.~.K.) P K 0 4 4 5 4 8 4 4 4 4 9 4 4 ",
"_.K 0 0 0 0 0 0 0 0 H [ ^.} N.n.~ R B 4 5 6 4 4 5 6 4 4 5 4 4 4 ",
"_._.K 0 0 0 0 0 0 0 0 6 ^././.[ P 5 4 4 5 6 4 4 4 5 4 4 9 4 9 4 ",
"_._.* 0 0 0 0 h 0 0 0 0 K ] T 0 4 4 4 4 4 4 5 5 4 4 4 4 6 4 4 4 ",
"_._._._.K 0 0 0 0 0 h 0 0 : 4 5 4 5 4 4 4 5 4 4 4 5 4 4 4 4 4 8 ",
"_._._._.* K 0 0 9 0 0 0 h 5 9 4 4 4 4 4 4 4 5 8 5 5 4 4 9 4 4 4 ",
"_._._._._._.K t 0 0 0 0 0 4 4 4 9 4 4 9 5 5 4 5 6 4 9 4 4 K * T ",
"_._._._._._.4 K 0 0 h 0 h 5 4 4 4 4 4 4 6 4 4 4 4 6 4 4 _._._._.",
"_._._._._._._._.K 0 0 0 0 9 6 5 4 9 4 4 5 4 4 4 5 T K _._._._._.",
"_._._._._._._._.2 K 0 0 h 9 6 4 9 4 4 6 8 : 4 T _._._._._._._._.",
"_._._._._._._._._._.K 0 0 4 4 4 5 4 4 4 B 9 _._._._._._._._._._.",
"_._._._._._._._._._.4 K 0 8 6 4 6 4 9 ] _._._._._._._._._._._._.",
"_._._._._._._._._._._._.L 9 4 4 G 9 _._._._._._._._._._._._._._.",
"_._._._._._._._._._._._.4 0 B * _._._._._._._._._._._._._._._._."
};
