/* XPM */
static char * imagic_xpm[] = {
"48 48 57 1",
" 	c #FFFFFFFFFFFF",
".	c #96589248A699",
"X	c #000000000000",
"o	c #5144514479E7",
"O	c #6185618579E7",
"+	c #61856185A699",
"@	c #18611C7171C6",
"#	c #208120818E38",
"$	c #861782079658",
"%	c #28A22CB2B6DA",
"&	c #30C234D39E79",
"*	c #9E799A69AEBA",
"=	c #96589658CF3C",
"-	c #79E779E7B6DA",
";	c #104010405144",
":	c #514451449E79",
">	c #79E779E79E79",
",	c #49244924BEFB",
"<	c #C71BC71BD75C",
"1	c #9E79A289B6DA",
"2	c #71C675D6D75C",
"3	c #FFFFFBEEFFFF",
"4	c #BEFBB2CA28A2",
"5	c #59655965DF7D",
"6	c #10401040AEBA",
"7	c #20812081CF3C",
"8	c #30C230C2CF3C",
"9	c #79E779E7EFBE",
"0	c #20812492EFBE",
"q	c #38E338E3E79D",
"w	c #082008208617",
"e	c #08200820D75C",
"r	c #41034103D75C",
"t	c #1040104038E3",
"y	c #18611861E79D",
"u	c #10401040F7DE",
"i	c #082008201040",
"p	c #104010402081",
"a	c #18611861C71B",
"s	c #18611040D75C",
"d	c #8E388A289E79",
"f	c #492449245965",
"g	c #30C230C24103",
"h	c #69A651441040",
"j	c #861779E728A2",
"k	c #410330C20820",
"l	c #71C669A630C2",
"z	c #5144492438E3",
"x	c #79E77DF78E38",
"c	c #186118610820",
"v	c #69A66DB679E7",
"b	c #71C675D68617",
"n	c #69A669A679E7",
"m	c #6185618571C6",
"M	c #6185618569A6",
"N	c #71C671C68617",
"B	c #5144514469A6",
"                                                ",
" ..............................................X",
" .XXXXXXXXXXXXXXXXXXXXXXXXXXXXXXXXXXXXXXXXXXXX.X",
" .XXXXXXXXXXXXXXXXXXXXXXXXXXXXXXXXXXXXXXXXXXXX.X",
" .XXXXXXXXXXXXXXXXXXXXXXXXXXXXXXXXXXXXXXXXXXXX.X",
" .XXXXXXXXXXXXXXXXXXXXXXXXXXXXXXXXXXXXXXXXXXXX.X",
" .XXXXXXXXXXXXXXXXXXXXXXXXXXXXXXXXXXXXXXXXXXXX.X",
" .XXXXXXXXXXXXXXXXXXXXXXXXXXXXXXXXXXXXXXXXXXXX.X",
" .XXXXXXXXXXXXXXXXXXXXooO+++OXXXXXXXXXXXXXXXXX.X",
" .XXXXXXXXXXXXXXXXX@#o$%&..***=-XXXXXXXXXXXXXX.X",
" .XXXXXXXXXXXXXXX@;##::>&,-=<<<<1XXXXXXXXXXXXX.X",
" .XXXXXXXXXXXXXX;@#&%%:,,-23344<425XX3XXXXXXXX.X",
" .XXXXXXXXXXXXX@@##663,785944<44=50q3XXXXXXXXX.X",
" .XXXXXXXXXXXX;ww466e68erq2<<99=q000XXXXXXXXXX.X",
" .XXXXXXXXXXXt;www666ee0q7r9950qqyuy0XXXXXXXXX.X",
" .XXXXXXXX<XX;wwww666eeeuu05quyqyuuuyrXXXXXXXX.X",
" .XX3XXXXXXXit;ww666eeuuueuqyuuuyuyyr8XXXXXXXX.X",
" .XXXXXXXXXXpt;@ww66eeeuuuuuuuuuuuyy07%XXXXXXX.X",
" .XX3X333XXXpp;wwww6eeeueuuuuuuuuuuyy7&XXXXXXX.X",
" .XXXX3XXXXXpp;@ww664eeeuuuu0uuuuuuyya%XXXXXXX.X",
" .XXXX3XXXXXpp;wwww6e3eeu3ur3q93uuuysa6XXXXXXX.X",
" .XXXXX3X33Xpp;wwww6%re323qu595quuuysa6XXXXXXX.X",
" .XXX3X33X3XXp;;33&%%+7eeeu<59quuuyya66XXXXXXX.X",
" .XXXXXXXXXXXt;;@#>d1=,eeuuq9qqueuyyaa#XXXXXXX.X",
" .XXXXXXXXXXXptffo+$:,-7r8rq270ee0ssa6#XXXXXXX.X",
" .XXXXXXXXXXXt;;ghhh>jj25-5258s7q787%%#XXXXXXX.X",
" .XXXXXXXXXXXpgfkhhkhhlj1-,r5555X7r5-&#XXXXXXX.X",
" .XXXXXXXXXXiikffkhhhhzjj-,82=2387-=-:XXXXXXXX.X",
" .XXXXXXXXXXXipgzkkhxd<3lj-3==13h%,=>:XXXXXXXX.X",
" .XXXXXXXXXXXicckkkkvb3d.3<j<+-:-+-d>XXXXXXXXX.X",
" .XXXXXXXXXX33itt33kkn<b$$hj>>:--+:+XXXXXXXXXX.X",
" .XXXXXXXXXXXXXiptggkkmvvbxhlj>>>#&&XXXXXXXXXX.X",
" .XXXXXXXXXXXXXXiptt;zffMmnvvNhObBBXXXXXXXXXXX.X",
" .XXXXXXXXXXXXXXXXiptggzffffMMMMoXXXXXXXXXXXXX.X",
" .XXXXXXXXXXXXXXXXXXptttgggzzffzXXXXXXXXXXXXXX.X",
" .XXXXXXXXXXXXXXXXXXXiiiiipccXXXXXXXXXXXXXXXXX.X",
" .XXXXXXXXXXXXXXXXXXXXXXXXXXXXXXXXXXXXXXXXXXXX.X",
" .XXXXXXXXXXXXXXXXXXXXXXXXXXXXXXXXXXXXXXXXXXXX.X",
" .XXXXXXXXXXXXXXXXXXXXXXXXXXXXXXXXXXXXXXXXXXXX.X",
" .XXXXXXXXXXXXXXXXXXXXXXXXXXXXXXXXXXXXXXXXXXXX.X",
" .XXXXXXXXXXXXXXXXXXXXXXXXXXXXXXXXXXXXXXXXXXXX.X",
" .XXXXXXXXXXXXXXXXXXXXXXXXXXXXXXXXXXXXXXXXXXXX.X",
" .XXXXXXXXXXXXjXXXXXXXXXXXXXXXXXXXXXXXXXXXXXXX.X",
" .XXXXXXXXXXXXXXkXXXXXXXXXXXXXXXXXXXXXXXXXXXXX.X",
" .XXXXXXXXXXkXXXXXXXXXXXXXXXXXXXXXXXXXXXXXXXXX.X",
" .XXXXXXXXXXXXXXXXXXXXXXXXXXXXXXXXXXXXXXXXXXXX.X",
" ..............................................X",
"XXXXXXXXXXXXXXXXXXXXXXXXXXXXXXXXXXXXXXXXXXXXXXXX"};
