/* XPM */
static char *jwm[] = {
/* columns rows colors chars-per-pixel */
"16 16 40 1 ",
"  c #305CD0",
". c #345FD1",
"X c #3661D1",
"o c #3862D2",
"O c #3A64D2",
"+ c #3D66D3",
"@ c #3E67D3",
"# c #426AD4",
"$ c #446CD5",
"% c #4970D6",
"& c #4B72D6",
"* c #4E73D7",
"= c #4F75D7",
"- c #5076D8",
"; c #5579D9",
": c #587CD9",
"> c #5C7FDA",
", c #5D80DA",
"< c #6485DC",
"1 c #6687DD",
"2 c #6F8EDF",
"3 c #708FDF",
"4 c #7391E0",
"5 c #7794E1",
"6 c #7895E1",
"7 c #7C98E2",
"8 c #7D99E2",
"9 c #829DE3",
"0 c #839EE3",
"q c #849EE3",
"w c #86A1E4",
"e c #88A2E5",
"r c #8BA4E5",
"t c #8CA5E5",
"y c #90A8E6",
"u c #97AEE8",
"i c #99AFE8",
"p c #9FB4EA",
"a c #A3B7EB",
"s c #A4B8EB",
/* pixels */
"ssssssssssssssss",
"ssssssssssssssss",
"ssssssssssssssss",
"ssssssssssssssss",
"soe$0toi6-0X8s;O",
"s w-26 q1:8 :pX ",
"s w<><=3;38@@0$ ",
"s w5%-4>@q8#;$< ",
"a wtX#i$ i8#4 eX",
"s wp #sO a8#i<y ",
"p ts+;s*$s8$ssy ",
",Xssssssssssssss",
"%8ssssssssssssss",
"ssssssssssssssss",
"ssssssssssssssss",
"ssssssssssssssss"
};
