<?xml version="1.0" encoding="UTF-8" standalone="no"?>
<!-- Created with Inkscape (http://www.inkscape.org/) -->

<svg
   xmlns:dc="http://purl.org/dc/elements/1.1/"
   xmlns:cc="http://creativecommons.org/ns#"
   xmlns:rdf="http://www.w3.org/1999/02/22-rdf-syntax-ns#"
   xmlns:svg="http://www.w3.org/2000/svg"
   xmlns="http://www.w3.org/2000/svg"
   xmlns:sodipodi="http://sodipodi.sourceforge.net/DTD/sodipodi-0.dtd"
   xmlns:inkscape="http://www.inkscape.org/namespaces/inkscape"
   width="32px"
   height="32px"
   id="svg6386"
   version="1.1"
   inkscape:version="0.48.4 r9939"
   sodipodi:docname="window-kill.svg">
  <defs
     id="defs6388" />
  <sodipodi:namedview
     id="base"
     pagecolor="#ffffff"
     bordercolor="#666666"
     borderopacity="1.0"
     inkscape:pageopacity="0.0"
     inkscape:pageshadow="2"
     inkscape:zoom="15.836083"
     inkscape:cx="7.02906"
     inkscape:cy="16.283408"
     inkscape:current-layer="layer1"
     showgrid="true"
     inkscape:grid-bbox="true"
     inkscape:document-units="px"
     inkscape:window-width="1127"
     inkscape:window-height="804"
     inkscape:window-x="440"
     inkscape:window-y="69"
     inkscape:window-maximized="0">
    <inkscape:grid
       type="xygrid"
       id="grid6394" />
  </sodipodi:namedview>
  <metadata
     id="metadata6391">
    <rdf:RDF>
      <cc:Work
         rdf:about="">
        <dc:format>image/svg+xml</dc:format>
        <dc:type
           rdf:resource="http://purl.org/dc/dcmitype/StillImage" />
        <dc:title />
      </cc:Work>
    </rdf:RDF>
  </metadata>
  <g
     id="layer1"
     inkscape:label="Layer 1"
     inkscape:groupmode="layer">
    <path
       style="font-size:medium;font-style:normal;font-variant:normal;font-weight:normal;font-stretch:normal;text-indent:0;text-align:start;text-decoration:none;line-height:normal;letter-spacing:normal;word-spacing:normal;text-transform:none;direction:ltr;block-progression:tb;writing-mode:lr-tb;text-anchor:start;baseline-shift:baseline;color:#000000;fill:#8299d2;fill-opacity:1;stroke:#5169a3;stroke-width:0.40000000000000002;marker:none;visibility:visible;display:inline;overflow:visible;enable-background:accumulate;font-family:Sans;-inkscape-font-specification:Sans;stroke-opacity:1;stroke-miterlimit:4;stroke-dasharray:none"
       d="M 4.84375 1.46875 A 1.50015 1.50015 0 0 0 4.6875 1.5 A 1.50015 1.50015 0 0 0 3.9375 4.0625 L 6.875 7 L 3.9375 9.9375 A 1.5026019 1.5026019 0 1 0 6.0625 12.0625 L 9 9.125 L 11.9375 12.0625 A 1.5026019 1.5026019 0 1 0 14.0625 9.9375 L 11.125 7 L 14.0625 4.0625 A 1.50015 1.50015 0 0 0 12.8125 1.5 A 1.50015 1.50015 0 0 0 11.9375 1.9375 L 9 4.875 L 6.0625 1.9375 A 1.50015 1.50015 0 0 0 4.84375 1.46875 z "
       id="path6967" />
    <path
       style="font-size:medium;font-style:normal;font-variant:normal;font-weight:normal;font-stretch:normal;text-indent:0;text-align:start;text-decoration:none;line-height:normal;letter-spacing:normal;word-spacing:normal;text-transform:none;direction:ltr;block-progression:tb;writing-mode:lr-tb;text-anchor:start;baseline-shift:baseline;color:#000000;fill:#8299d2;fill-opacity:1;stroke:#5169a3;stroke-width:0.40000000000000002;marker:none;visibility:visible;display:inline;overflow:visible;enable-background:accumulate;font-family:Sans;-inkscape-font-specification:Sans;stroke-opacity:1;stroke-miterlimit:4;stroke-dasharray:none"
       d="M 18.84375 1.46875 A 1.50015 1.50015 0 0 0 18.6875 1.5 A 1.50015 1.50015 0 0 0 17.9375 4.0625 L 20.875 7 L 17.9375 9.9375 A 1.5026019 1.5026019 0 1 0 20.0625 12.0625 L 23 9.125 L 25.9375 12.0625 A 1.5026019 1.5026019 0 1 0 28.0625 9.9375 L 25.125 7 L 28.0625 4.0625 A 1.50015 1.50015 0 0 0 26.8125 1.5 A 1.50015 1.50015 0 0 0 25.9375 1.9375 L 23 4.875 L 20.0625 1.9375 A 1.50015 1.50015 0 0 0 18.84375 1.46875 z "
       id="path6982" />
    <path
       style="font-size:medium;font-style:normal;font-variant:normal;font-weight:normal;font-stretch:normal;text-indent:0;text-align:start;text-decoration:none;line-height:normal;letter-spacing:normal;word-spacing:normal;text-transform:none;direction:ltr;block-progression:tb;writing-mode:lr-tb;text-anchor:start;baseline-shift:baseline;color:#000000;fill:#8299d2;fill-opacity:1;stroke:#5169a3;stroke-width:0.40000000000000002;marker:none;visibility:visible;display:inline;overflow:visible;enable-background:accumulate;font-family:Sans;-inkscape-font-specification:Sans;stroke-opacity:1;stroke-miterlimit:4;stroke-dasharray:none"
       d="m 16,18.5 c -8.875,0 -12.375,7.90625 -12.375,7.90625 a 1.50015,1.50015 0 1 0 2.75,1.1875 c 0,0 2.5,-6.09375 9.625,-6.09375 7.125,0 9.625,6.09375 9.625,6.09375 a 1.50015,1.50015 0 1 0 2.75,-1.1875 c 0,0 -3.5,-7.90625 -12.375,-7.90625 z"
       id="path7015"
       inkscape:connector-curvature="0" />
  </g>
</svg>
