<?xml version="1.0" encoding="UTF-8" standalone="no"?>
<!-- Created with Inkscape (http://www.inkscape.org/) -->

<svg
   xmlns:dc="http://purl.org/dc/elements/1.1/"
   xmlns:cc="http://creativecommons.org/ns#"
   xmlns:rdf="http://www.w3.org/1999/02/22-rdf-syntax-ns#"
   xmlns:svg="http://www.w3.org/2000/svg"
   xmlns="http://www.w3.org/2000/svg"
   xmlns:sodipodi="http://sodipodi.sourceforge.net/DTD/sodipodi-0.dtd"
   xmlns:inkscape="http://www.inkscape.org/namespaces/inkscape"
   width="32px"
   height="32px"
   id="svg8948"
   version="1.1"
   inkscape:version="0.48.4 r9939"
   sodipodi:docname="window-stick.svg">
  <defs
     id="defs8950" />
  <sodipodi:namedview
     id="base"
     pagecolor="#ffffff"
     bordercolor="#666666"
     borderopacity="1.0"
     inkscape:pageopacity="0.0"
     inkscape:pageshadow="2"
     inkscape:zoom="15.836083"
     inkscape:cx="5.229027"
     inkscape:cy="15.734841"
     inkscape:current-layer="layer1"
     showgrid="true"
     inkscape:grid-bbox="true"
     inkscape:document-units="px"
     inkscape:window-width="1231"
     inkscape:window-height="883"
     inkscape:window-x="434"
     inkscape:window-y="68"
     inkscape:window-maximized="0">
    <inkscape:grid
       type="xygrid"
       id="grid9464" />
  </sodipodi:namedview>
  <metadata
     id="metadata8953">
    <rdf:RDF>
      <cc:Work
         rdf:about="">
        <dc:format>image/svg+xml</dc:format>
        <dc:type
           rdf:resource="http://purl.org/dc/dcmitype/StillImage" />
        <dc:title />
      </cc:Work>
    </rdf:RDF>
  </metadata>
  <g
     id="layer1"
     inkscape:label="Layer 1"
     inkscape:groupmode="layer">
    <path
       style="font-size:medium;font-style:normal;font-variant:normal;font-weight:normal;font-stretch:normal;text-indent:0;text-align:start;text-decoration:none;line-height:normal;letter-spacing:normal;word-spacing:normal;text-transform:none;direction:ltr;block-progression:tb;writing-mode:lr-tb;text-anchor:start;baseline-shift:baseline;color:#000000;fill:#8199d2;fill-opacity:1;stroke:#5169a3;stroke-width:0.40000000000000002;marker:none;visibility:visible;display:inline;overflow:visible;enable-background:accumulate;font-family:Sans;-inkscape-font-specification:Sans;stroke-opacity:1;stroke-miterlimit:4;stroke-dasharray:none"
       d="M 8.84375,7.5 A 1.50015,1.50015 0 0 0 7.5,9 l 0,14 A 1.50015,1.50015 0 0 0 9,24.5 l 14,0 A 1.50015,1.50015 0 0 0 24.5,23 l 0,-14 A 1.50015,1.50015 0 0 0 23,7.5 l -14,0 a 1.50015,1.50015 0 0 0 -0.15625,0 z m 1.65625,3 11,0 0,11 -11,0 0,-11 z"
       id="path9466"
       inkscape:connector-curvature="0" />
    <path
       style="fill:#8199d2;fill-opacity:1;fill-rule:evenodd;stroke:#5169a3;stroke-width:0.40000001000000002;stroke-linecap:round;stroke-linejoin:round;stroke-miterlimit:4;stroke-opacity:1;stroke-dasharray:none;stroke-dashoffset:10.89000000000000057"
       d="M 16.25 12 C 14.04477 11.868645 12.131355 13.54477 12 15.75 L 12 15.875 C 11.930163 18.040554 13.587154 19.87117 15.75 20 C 17.95523 20.131355 19.868645 18.45523 20 16.25 C 20.131355 14.04477 18.45523 12.131355 16.25 12 z M 16.0625 15 C 16.613808 15.032839 17.032839 15.511192 17 16.0625 C 16.967161 16.613808 16.488808 17.032839 15.9375 17 C 15.396788 16.967792 14.982541 16.510139 15 15.96875 L 15 15.9375 C 15.032839 15.386192 15.511192 14.967161 16.0625 15 z "
       id="path9472" />
  </g>
</svg>
