<?xml version="1.0" encoding="UTF-8" standalone="no"?>
<!-- Created with Inkscape (http://www.inkscape.org/) -->

<svg
   xmlns:dc="http://purl.org/dc/elements/1.1/"
   xmlns:cc="http://creativecommons.org/ns#"
   xmlns:rdf="http://www.w3.org/1999/02/22-rdf-syntax-ns#"
   xmlns:svg="http://www.w3.org/2000/svg"
   xmlns="http://www.w3.org/2000/svg"
   xmlns:sodipodi="http://sodipodi.sourceforge.net/DTD/sodipodi-0.dtd"
   xmlns:inkscape="http://www.inkscape.org/namespaces/inkscape"
   width="32px"
   height="32px"
   id="svg7032"
   version="1.1"
   inkscape:version="0.48.4 r9939"
   sodipodi:docname="window-resize.svg">
  <defs
     id="defs7034">
    <marker
       inkscape:stockid="Arrow1Send"
       orient="auto"
       refY="0.0"
       refX="0.0"
       id="Arrow1Send"
       style="overflow:visible;">
      <path
         id="path7757"
         d="M 0.0,0.0 L 5.0,-5.0 L -12.5,0.0 L 5.0,5.0 L 0.0,0.0 z "
         style="fill-rule:evenodd;stroke:#000000;stroke-width:1.0pt;"
         transform="scale(0.2) rotate(180) translate(6,0)" />
    </marker>
    <marker
       inkscape:stockid="Arrow1Lend"
       orient="auto"
       refY="0.0"
       refX="0.0"
       id="Arrow1Lend"
       style="overflow:visible;">
      <path
         id="path7745"
         d="M 0.0,0.0 L 5.0,-5.0 L -12.5,0.0 L 5.0,5.0 L 0.0,0.0 z "
         style="fill-rule:evenodd;stroke:#000000;stroke-width:1.0pt;"
         transform="scale(0.8) rotate(180) translate(12.5,0)" />
    </marker>
  </defs>
  <sodipodi:namedview
     id="base"
     pagecolor="#ffffff"
     bordercolor="#666666"
     borderopacity="1.0"
     inkscape:pageopacity="0.0"
     inkscape:pageshadow="2"
     inkscape:zoom="18.323529"
     inkscape:cx="15.946181"
     inkscape:cy="15.041497"
     inkscape:current-layer="layer1"
     showgrid="true"
     inkscape:grid-bbox="true"
     inkscape:document-units="px"
     inkscape:window-width="1117"
     inkscape:window-height="825"
     inkscape:window-x="649"
     inkscape:window-y="79"
     inkscape:window-maximized="0">
    <inkscape:grid
       type="xygrid"
       id="grid7040" />
  </sodipodi:namedview>
  <metadata
     id="metadata7037">
    <rdf:RDF>
      <cc:Work
         rdf:about="">
        <dc:format>image/svg+xml</dc:format>
        <dc:type
           rdf:resource="http://purl.org/dc/dcmitype/StillImage" />
        <dc:title />
      </cc:Work>
    </rdf:RDF>
  </metadata>
  <g
     id="layer1"
     inkscape:label="Layer 1"
     inkscape:groupmode="layer">
    <path
       style="font-size:medium;font-style:normal;font-variant:normal;font-weight:normal;font-stretch:normal;text-indent:0;text-align:start;text-decoration:none;line-height:normal;letter-spacing:normal;word-spacing:normal;text-transform:none;direction:ltr;block-progression:tb;writing-mode:lr-tb;text-anchor:start;baseline-shift:baseline;color:#000000;fill:#8199d2;fill-opacity:1;stroke:#5169a3;stroke-width:0.40000001000000002;stroke-miterlimit:4;stroke-opacity:1;stroke-dasharray:none;marker:none;visibility:visible;display:inline;overflow:visible;enable-background:accumulate;font-family:Sans;-inkscape-font-specification:Sans"
       d="M 4.84375,11.5 C 4.1118294,11.576715 3.4960642,12.264081 3.5,13 c -0.057662,4.73351 0,9.264787 0,14 7.85e-5,0.785377 0.7146233,1.499921 1.5,1.5 l 13,0 c 0.785377,-7.9e-5 1.499921,-0.714623 1.5,-1.5 2.9e-4,-4.863488 3.2e-5,-9.48735 0,-14 -7.9e-5,-0.785377 -0.714623,-1.499921 -1.5,-1.5 l -13,0 c -0.052036,-0.0027 -0.1042138,-0.0027 -0.15625,0 z m 1.65625,3 10,0 0,3 -10,0 z m 0,6 10,0 0,5 -10,0 z"
       id="path7042"
       inkscape:connector-curvature="0"
       sodipodi:nodetypes="cccccccccccccccccccc" />
    <path
       style="font-size:medium;font-style:normal;font-variant:normal;font-weight:normal;font-stretch:normal;text-indent:0;text-align:start;text-decoration:none;line-height:normal;letter-spacing:normal;word-spacing:normal;text-transform:none;direction:ltr;block-progression:tb;writing-mode:lr-tb;text-anchor:start;baseline-shift:baseline;color:#000000;fill:#8199d2;fill-opacity:1;stroke:#5169a3;stroke-width:0.40000000000000002;marker:none;visibility:visible;display:inline;overflow:visible;enable-background:accumulate;font-family:Sans;-inkscape-font-specification:Sans;stroke-opacity:1;stroke-miterlimit:4;stroke-dasharray:none;stroke-linejoin:round;stroke-linecap:round"
       d="m 5.125,6.5 3,0 0,-3 -3,0 z m 6,0 3,0 0,-3 -3,0 z m 6,0 3,0 0,-3 -3,0 z m 6,0 3,0 0,-3 -3,0 z m 2.375,3.625 3,0 0,-3 -3,0 z m -22,0.75 3,0 0,-3 -3,0 z m 22,5.25 3,0 0,-3 -3,0 z m 0,6 3,0 0,-3 -3,0 z m 0,4.875 0.375,0 0,1.5 1.125,0 1.15625,-0.5625 L 28.5,27 l 0,-1.875 -3,0 z m -5.625,1.5 3,0 0,-3 -3,0 z"
       id="path7554"
       inkscape:connector-curvature="0" />
  </g>
</svg>
