<?xml version="1.0" encoding="UTF-8" standalone="no"?>
<!-- Created with Inkscape (http://www.inkscape.org/) -->

<svg
   xmlns:dc="http://purl.org/dc/elements/1.1/"
   xmlns:cc="http://creativecommons.org/ns#"
   xmlns:rdf="http://www.w3.org/1999/02/22-rdf-syntax-ns#"
   xmlns:svg="http://www.w3.org/2000/svg"
   xmlns="http://www.w3.org/2000/svg"
   xmlns:sodipodi="http://sodipodi.sourceforge.net/DTD/sodipodi-0.dtd"
   xmlns:inkscape="http://www.inkscape.org/namespaces/inkscape"
   width="32px"
   height="32px"
   id="svg9496"
   version="1.1"
   inkscape:version="0.48.4 r9939"
   sodipodi:docname="window-sendto.svg">
  <defs
     id="defs9498" />
  <sodipodi:namedview
     id="base"
     pagecolor="#ffffff"
     bordercolor="#666666"
     borderopacity="1.0"
     inkscape:pageopacity="0.0"
     inkscape:pageshadow="2"
     inkscape:zoom="22.395604"
     inkscape:cx="15.738474"
     inkscape:cy="16.341383"
     inkscape:current-layer="layer1"
     showgrid="true"
     inkscape:grid-bbox="true"
     inkscape:document-units="px"
     inkscape:window-width="1315"
     inkscape:window-height="939"
     inkscape:window-x="393"
     inkscape:window-y="66"
     inkscape:window-maximized="0">
    <inkscape:grid
       type="xygrid"
       id="grid10012" />
  </sodipodi:namedview>
  <metadata
     id="metadata9501">
    <rdf:RDF>
      <cc:Work
         rdf:about="">
        <dc:format>image/svg+xml</dc:format>
        <dc:type
           rdf:resource="http://purl.org/dc/dcmitype/StillImage" />
        <dc:title />
      </cc:Work>
    </rdf:RDF>
  </metadata>
  <g
     id="layer1"
     inkscape:label="Layer 1"
     inkscape:groupmode="layer">
    <path
       style="font-size:medium;font-style:normal;font-variant:normal;font-weight:normal;font-stretch:normal;text-indent:0;text-align:start;text-decoration:none;line-height:normal;letter-spacing:normal;word-spacing:normal;text-transform:none;direction:ltr;block-progression:tb;writing-mode:lr-tb;text-anchor:start;baseline-shift:baseline;color:#000000;fill:#8199d2;fill-opacity:1;stroke:#5169a3;stroke-width:0.40000000000000002;marker:none;visibility:visible;display:inline;overflow:visible;enable-background:accumulate;font-family:Sans;-inkscape-font-specification:Sans;stroke-opacity:1;stroke-miterlimit:4;stroke-dasharray:none"
       d="M 4.875 3.6875 A 1.30013 1.30013 0 0 0 3.6875 5 L 3.6875 8.90625 A 1.3125 1.3125 0 0 0 3.6875 9.15625 L 3.6875 19 A 1.30013 1.30013 0 0 0 5 20.3125 L 19 20.3125 A 1.30013 1.30013 0 0 0 20.3125 19 L 20.3125 9.09375 A 1.3125 1.3125 0 0 0 20.3125 8.84375 L 20.3125 5 A 1.30013 1.30013 0 0 0 19 3.6875 L 5 3.6875 A 1.30013 1.30013 0 0 0 4.875 3.6875 z M 6.3125 6.3125 L 17.6875 6.3125 L 17.6875 7.6875 L 6.3125 7.6875 L 6.3125 6.3125 z M 6.3125 10.3125 L 17.6875 10.3125 L 17.6875 17.6875 L 6.3125 17.6875 L 6.3125 10.3125 z "
       id="path10014" />
    <path
       style="font-size:medium;font-style:normal;font-variant:normal;font-weight:normal;font-stretch:normal;text-indent:0;text-align:start;text-decoration:none;line-height:normal;letter-spacing:normal;word-spacing:normal;text-transform:none;direction:ltr;block-progression:tb;writing-mode:lr-tb;text-anchor:start;baseline-shift:baseline;color:#000000;fill:#8199d2;fill-opacity:1;stroke:#5169a3;stroke-width:0.40000001000000002;stroke-linecap:round;stroke-linejoin:round;stroke-miterlimit:4;stroke-opacity:1;stroke-dasharray:none;marker:none;visibility:visible;display:inline;overflow:visible;enable-background:accumulate;font-family:Sans;-inkscape-font-specification:Sans"
       d="m 22,16 0,5.5 -17,0 C 4.947964,21.4973 4.8957862,21.4973 4.84375,21.5 4.0583518,21.540906 3.3965938,22.277102 3.4375,23.0625 3.4784061,23.847898 4.2146018,24.540906 5,24.5 l 17,0 0,5.5 7,-7 z"
       id="path10018"
       inkscape:connector-curvature="0"
       sodipodi:nodetypes="ccccsccccc" />
  </g>
</svg>
